# xmcd
#
# Track frame offsets:
#	150
#	14379
#	28561
#	42889
#	56661
#	70740
#	84420
#	98282
#	112150
#	124230
#	138193
#	150792
#	162283
#	177931
#	189943
#	203154
#
# Disc length: 2858 seconds
#
# Revision: 0
# Processed by: cddbd v1.5.2PL0 Copyright (c) Steve Scherf et al.
# Submitted via: EasyCDDAExtractor 15.3.0.1
#
DISCID=c20b2810
DTITLE=Charley Patton and Blind Lemon Jefferson - Devil’s Best Friend
DYEAR=1900
DGENRE=
TTITLE0=Mississippi Boweavil Blues
TTITLE1=Screamin' And Hollerin' The Blues
TTITLE2=A Spoonful Of Blues
TTITLE3=Devil Sent The Rain Blues
TTITLE4=Shake It And Break It (But Don't Let It Fall Mama)
TTITLE5=Going To Move To Alabama
TTITLE6=Pea Vine Blues
TTITLE7=I Shall Not Be Moved
TTITLE8=See That My Grave's Kept Clean
TTITLE9=That Black Snake Moan
TTITLE10=Blind Lemon's Penitentiary Blues
TTITLE11=Jack O'Diamond Blues
TTITLE12=Long Distance Moan
TTITLE13=Chock House Blues
TTITLE14=Easy Rider Blues
TTITLE15=Lectric Chair Blues
EXTD=
EXTT0=
EXTT1=
EXTT2=
EXTT3=
EXTT4=
EXTT5=
EXTT6=
EXTT7=
EXTT8=
EXTT9=
EXTT10=
EXTT11=
EXTT12=
EXTT13=
EXTT14=
EXTT15=
PLAYORDER=
